<svg xmlns="http://www.w3.org/2000/svg" width="64" height="64" xml:space="preserve"><path fill-rule="evenodd" clip-rule="evenodd" fill="#08C" d="M63.712 13.29 55.28 53.896C54.364 58.397 51.322 60 48.779 60c-1.312 0-2.674-.393-4.052-1.171l-.229-.131-.214-.16L26.75 45.302l-.659 7.735c-.344 1.807-1.988 3.105-3.859 2.951a3.634 3.634 0 0 1-3.091-2.32l-2.926-8.785A1.974 1.974 0 0 1 16 44a2 2 0 0 1 2-2c.873 0 1.605.56 1.879 1.338.002 0 .005-.002.007-.005l2.402 7.215.352-4.129v-.007a4.806 4.806 0 0 1 5.183-4.396c.873.07 1.666.381 2.335.847l16.535 12.482c.77.434 1.47.654 2.086.654 1.277 0 2.184-.95 2.581-2.901l8.448-40.682c.69-2.82-.559-4.416-2.24-4.416-.429 0-.885.104-1.348.317L6.616 27.864c-3.387 1.389-3.367 3.318-.618 4.177l8.199 2.616c.002 0 .01-.005.012-.003a2.087 2.087 0 0 0 1.733-.223c.01-.005.017-.003.026-.008l21.938-13.825a3.997 3.997 0 0 1 5.474 1.261 3.993 3.993 0 0 1-.468 4.87L31.414 38.226v.002l-.031.029-.002-.002a1.988 1.988 0 0 1-1.379.558 2 2 0 0 1-2-2c0-.536.213-1.021.558-1.38l-.002-.002 11.394-11.396-21.937 13.824a6.105 6.105 0 0 1-5.023.604c-.012-.005-.024 0-.037-.005l-8.15-2.599C.51 34.516.046 31.403.005 30.482c-.065-1.552.506-4.438 5.093-6.32l.024-.01.026-.01 49.515-19.51A7.148 7.148 0 0 1 57.568 4c1.959 0 3.766.87 4.958 2.391 1.4 1.779 1.819 4.227 1.186 6.899zM30 50a2 2 0 1 1 .001 3.999A2 2 0 0 1 30 50z"/></svg>