<svg xmlns="http://www.w3.org/2000/svg" width="512" height="512" xml:space="preserve"><path fill-rule="evenodd" clip-rule="evenodd" fill="#444" d="M384.004 80.011V111.995c0 8.844 7.172 16 16.001 16H432.006c8.828 0 16.008 7.176 16.008 16.004 0 8.844-7.18 16.004-16.008 16.004h-40.002c-20.977 0-38.017-16.219-39.688-36.777-.086-1.078-.32-2.117-.32-3.23V80.011c0-8.848 7.18-16.004 16-16.004 8.844 0 16.008 7.157 16.008 16.004zM127.996 271.994c0-8.82 7.157-16 16-16 8.829 0 16 7.18 16 16 0 8.844-7.172 16.008-16 16.008-8.843 0-16-7.164-16-16.008zM256 384.009c-34.782 0-66.252-13.898-89.323-36.414-3.57-2.93-5.921-7.344-5.921-12.344 0-8.828 7.164-15.999 15.984-15.999 4.43 0 8.414 1.789 11.321 4.694l.055-.055C205.484 341.282 229.484 352 256.001 352c48.416 0 88.314-35.858 94.917-82.444l.125.016c1.383-8.648 9.406-14.656 18.102-13.398 8.743 1.273 14.806 9.383 13.548 18.141-.125.844-.359 1.641-.609 2.438-9.939 60.81-62.473 107.256-126.084 107.256zm239.999-96.007c-8.828 0-15.984-7.164-15.984-16.008 0-8.82 7.156-16 15.984-16 8.845 0 16.001 7.18 16.001 16 0 8.844-7.156 16.008-16.001 16.008zM416.005 512H95.995C42.985 512 0 469.023 0 415.993V255.994c0-35.339 28.649-63.992 63.986-63.992h64.009c10.477 0 19.79-5.039 25.642-12.844.141-.18.32-.285.484-.43 23.352-30.8 60.236-50.734 101.878-50.734 41.635 0 78.525 19.934 101.878 50.734.164.145.344.25.484.43 5.852 7.805 15.165 12.844 25.642 12.844h64.01c17.664 0 32.001-14.332 32.001-32V96.011c0-35.359-28.665-64.007-64.01-64.007H95.995c-35.345 0-63.994 28.648-63.994 64.007v47.988c0 8.844-7.172 16.004-16 16.004-8.844 0-16-7.16-16-16.004V96.011C0 42.984 42.985 0 95.995 0h320.01C469.014 0 512 42.984 512 96.011V160.003c0 35.339-28.649 64.003-63.986 64.003h-64.01c-20.923 0-39.486-10.042-51.166-25.562-.094-.125-.219-.145-.305-.25-17.492-23.195-45.228-38.191-76.533-38.191-31.29 0-59.064 14.996-76.534 38.191-.094.105-.219.125-.305.25-11.665 15.52-30.243 25.562-51.166 25.562h-64.01C46.32 224.006 32 238.322 32 255.994v159.999C32.001 451.352 60.65 480 95.995 480h320.01c35.345 0 64.01-28.648 64.01-64.007v-79.992c0-8.844 7.156-15.999 15.984-15.999 8.845 0 16.001 7.155 16.001 15.999v79.992c0 53.03-42.986 96.007-95.995 96.007z"/></svg>