<svg xmlns="http://www.w3.org/2000/svg" width="512" height="512" xml:space="preserve"><path fill-rule="evenodd" clip-rule="evenodd" fill="#469EC8" d="M472 480h-79.991c-19.375 0-35.523-13.758-39.211-32.04-.273 0-.523.039-.797.039V303.205c0-17.242-14.328-31.196-31.999-31.196-17.672 0-32 13.954-32 31.196v136.81c0 9.758-3.648 18.547-9.438 25.508-3.18 4.813-8.609 7.985-14.805 7.985-9.812 0-17.758-7.946-17.758-17.759 0-5.188 2.258-9.812 5.828-13.062 2.586-2.852 4.18-6.547 4.18-10.673V301.713c0-34.079 28.648-61.713 63.992-61.713 35.343 0 64.007 27.634 64.007 61.713v107.426c0 1.148-.109 2.141-.18 3.195.055-.016.125-.016.18-.039v19.719c0 8.829 7.156 15.985 16 15.985H464c8.844 0 16-7.156 16-15.985V288.01c0-1.203-.141-2.352-.391-3.478-4.109-69.486-59.592-124.542-127.608-124.542-28.234 0-54.233 9.578-75.358 25.657-.078-.039-.164-.023-.328.102a12.409 12.409 0 0 1-7.812 2.75c-6.914 0-12.492-5.602-12.492-12.508 0-.859-.051-1.305-.141-1.43-.738-8.149-7.52-14.571-15.859-14.571h-48.007c-17.668 0-32.003 14.336-32.003 32.009v240.015c0 1.438.254 2.821.609 4.142a12.3 12.3 0 0 0-.609 3.859c0 22.086-17.902 39.985-40.004 39.985H40.003C17.922 480 0 462.101 0 440.015V167.99c0-22.086 17.922-39.985 40.003-39.985h40.004c26.496 0 47.988-21.493 47.988-48.01 0-26.516-21.492-48.009-47.988-48.009-26.512 0-48.003 21.493-48.003 48.009 0 8.844-7.156 16-16.004 16-8.824 0-16-7.156-16-16C0 35.806 35.824 0 80.007 0c44.187 0 79.992 35.806 79.992 79.995 0 4.055-.395 8-.984 11.899-.129.75-.199 1.523-.344 2.273-.699 3.891-1.648 7.719-2.906 11.391-.051.18-.141.344-.195.523a80.061 80.061 0 0 1-11.66 21.907c-14.586 19.391-37.746 32.001-63.902 32.001H48.003c-8.844 0-16 7.18-16 16v256.023c0 8.829 7.156 15.985 16 15.985h80.8a40.365 40.365 0 0 1-.809-7.984V191.999c0-35.345 28.668-63.994 64.007-63.994h56.007c9.883 0 18.867 3.641 25.836 9.617.086.055.172-.039.266.031a15.859 15.859 0 0 0 10.391 3.844c2.188 0 4.266-.43 6.148-1.227.57-.25.914-.211 1.242-.172 18.578-7.609 38.78-12.094 60.108-12.094 82.938 0 151.124 63.111 159.194 143.911a40.01 40.01 0 0 1 .805 8.094v160.006C512 462.101 494.102 480 472 480zm-263.994-32.001c8.824 0 16 7.172 16 16 0 8.845-7.175 16.001-16 16.001-8.844 0-16.004-7.156-16.004-16.001 0-8.828 7.161-16 16.004-16z"/></svg>